<?xml version="1.0" encoding="UTF-8"?>
<svg width="180px" height="180px" viewBox="0 0 180 180" version="1.1" xmlns="http://www.w3.org/2000/svg" xmlns:xlink="http://www.w3.org/1999/xlink">
    <!-- Generator: Sketch 53.2 (72643) - https://sketchapp.com -->
    <title>icon</title>
    <desc>Created with Sketch.</desc>
    <g id="icon" stroke="none" stroke-width="1" fill="none" fill-rule="evenodd">
        <g id="Logo" transform="translate(-0.000000, 0.000000)" fill="#9E1212">
            <path d="M90,180 C139.705627,180 180,139.705627 180,90 C180,40.2943725 139.705627,1.42108547e-14 90,1.42108547e-14 C40.2943725,1.42108547e-14 2.84217094e-14,40.2943725 2.84217094e-14,90 C2.84217094e-14,139.705627 40.2943725,180 90,180 Z M72.1175701,125.490546 L129.626754,125.490546 L129.626754,147.23487 L50.3744154,147.23487 L50.3744154,147.21925 L50.3732463,32.7651297 L94.7202226,32.7651297 C106.641512,32.7651297 115.439292,35.8646185 121.113826,42.0636892 C126.78836,48.2627599 129.625585,55.8922709 129.625585,64.9524512 C129.625585,68.8626342 128.958002,72.6535475 127.622818,76.3253048 C126.287633,79.997062 124.284887,83.4064998 121.614518,86.5537203 C118.944149,89.7009408 115.272447,92.2282163 110.599301,94.1356227 C105.926156,96.043029 100.633182,96.9967179 94.7202226,96.9967179 L72.1175701,96.9967179 L72.1175701,125.490546 Z M95.5785512,76.5398869 C99.3933639,76.5398869 102.254431,75.3954603 104.161837,73.1065726 C106.069243,70.817685 107.022932,68.0996717 107.022932,64.9524512 C107.022932,61.900601 106.116928,59.2064299 104.304892,56.8698571 C102.492856,54.5332843 99.5841045,53.3650154 95.5785512,53.3650154 L72.1175701,53.3650154 L72.1175701,76.5398869 L95.5785512,76.5398869 Z" id="Combined-Shape"></path>
        </g>
    </g>
</svg>