<?xml version="1.0" encoding="UTF-8"?>
<svg width="180px" height="180px" viewBox="0 0 180 180" version="1.1" xmlns="http://www.w3.org/2000/svg" xmlns:xlink="http://www.w3.org/1999/xlink">
    <!-- Generator: Sketch 53.2 (72643) - https://sketchapp.com -->
    <title>animated-logo</title>
    <desc>Created with Sketch.</desc>
    <g id="animated-logo" stroke="none" stroke-width="1" fill="none" fill-rule="evenodd">
        <g id="Group" transform="translate(4.500000, 0.000000)">
            <g id="Logo" transform="translate(11.330131, 17.352040)" fill="#9E1212">
                <path d="M73.8331552,147.66631 C114.610081,147.66631 147.66631,114.610081 147.66631,73.8331552 C147.66631,33.0562295 114.610081,1.42108547e-14 73.8331552,1.42108547e-14 C33.0562295,1.42108547e-14 2.84217094e-14,33.0562295 2.84217094e-14,73.8331552 C2.84217094e-14,114.610081 33.0562295,147.66631 73.8331552,147.66631 Z M59.162975,102.948478 L106.341691,102.948478 L106.341691,120.786834 L41.3255781,120.786834 L41.3255781,120.774019 L41.324619,26.8794767 L77.7054766,26.8794767 C87.4853259,26.8794767 94.7027464,29.4221994 99.3579547,34.507721 C104.013163,39.5932427 106.340732,45.8522524 106.340732,53.2849379 C106.340732,56.4927284 105.793069,59.6026739 104.697726,62.6148675 C103.602383,65.627061 101.959393,68.424056 99.7687063,71.0059362 C97.5780201,73.5878164 94.5658717,75.6611134 90.7321707,77.2258893 C86.8984698,78.7906652 82.5562818,79.5730414 77.7054766,79.5730414 L59.162975,79.5730414 L59.162975,102.948478 Z M78.4096222,62.7909039 C81.539174,62.7909039 83.8863026,61.8520524 85.4510785,59.9743213 C87.0158544,58.0965903 87.7982306,55.8668181 87.7982306,53.2849379 C87.7982306,50.7812964 87.0549732,48.5710836 85.5684361,46.6542332 C84.081899,44.7373827 81.6956516,43.7789718 78.4096222,43.7789718 L59.162975,43.7789718 L59.162975,62.7909039 L78.4096222,62.7909039 Z" id="Combined-Shape"></path>
            </g>
            <circle id="Oval" stroke="#BBBBBB" cx="85.1632861" cy="91.1851953" r="85.1632861"></circle>
            <circle id="Oval" fill="#BBBBBB" cx="85.2582003" cy="6.02190916" r="6.02190916"></circle>
            <circle id="Oval-Copy" fill="#BBBBBB" cx="85.1632861" cy="176.348481" r="3.04614713"></circle>
        </g>
    </g>
</svg>